<?xml version="1.0" encoding="UTF-8" standalone="no"?>
<svg
   viewBox="0 0 840 1187.5825"
   version="1.1"
   id="svg2"
   width="840"
   height="1187.5825"
   xmlns="http://www.w3.org/2000/svg"
   xmlns:svg="http://www.w3.org/2000/svg">
  <defs
     id="defs2" />
  <circle
     cx="420"
     cy="767.58252"
     r="420"
     id="circle1" />
  <circle
     cx="420"
     cy="767.58252"
     r="360"
     fill="#00239c"
     id="circle2" />
  <path
     fill="#ffffff"
     d="m 645.2,569.38251 -28.4,60.8 c 27.2,39 43.2,86.3 43.2,137.4 0,42.8 -11.2,82.9 -30.8,117.7 l 7.8,89.5 c 51.4,-53.8 83,-126.8 83,-207.1 0,-76.1 -28.2,-145.4 -74.8,-198.3 z M 450.4,1005.6825 V 529.48251 c 25.2,3.2 49.2,10.3 71.3,20.7 l 25.4,-54.4 c -38.6,-18.1 -81.7,-28.2 -127.1,-28.2 -45.4,0 -88.5,10.1 -127.1,28.2 l 25.4,54.4 c 22.4,-10.5 46.7,-17.6 72.2,-20.8 v 476.39999 c -23.8,-2.9 -46.6,-9.39999 -67.7,-18.69999 l -5.5,62.49999 c 32,11.6 66.6,18 102.7,18 36.2,0 71,-6.4 103.1,-18.2 l -5.5,-62.49999 c -20.9,9.4 -43.5,15.79999 -67.2,18.79999 z M 194.8,569.38251 c -46.6,52.9 -74.8,122.2 -74.8,198.2 0,80.5 31.7,153.6 83.3,207.4 l 7.8,-89.3 c -19.8,-34.8 -31.1,-75.1 -31.1,-118.1 0,-51.1 16,-98.4 43.2,-137.3 z m 382.9,72.7 44.7,-95.9 c -15.1,-13.8 -31.5,-26 -49.2,-36.5 l -92.6,198.8 v 142 l 46.4,-99.5 25,286.09999 c 20.4,-10 39.5,-22.3 57,-36.5 z m -217.1,69.7 -94.1,-201.9 c -17.6,10.5 -34.1,22.8 -49.1,36.6 l 44.9,96.3 -0.1,1.7 -31.1,356.09999 c 17.5,14.2 36.6,26.5 57,36.5 l 25,-285.59999 47.7,102.3 v -142 z"
     id="path2" />
  <g
     id="g3"
     transform="translate(48.882481,347.58251)">
    <path
       style="fill:#000000;fill-opacity:1;stroke:none;stroke-width:1.051;stroke-linecap:square"
       id="path3"
       d="m 458.25915,-49.909425 -102.11972,-73.656735 -102.19066,73.558271 38.49499,-119.882811 -101.53673,-74.45834 125.91094,-0.43491 39.43751,-119.57606 39.32225,119.61402 125.91045,0.55627 -101.60845,74.36044 z"
       transform="rotate(-11.580699,339.86432,621.43981)" />
    <path
       style="fill:#00239c;fill-opacity:1;stroke:none;stroke-width:1.051;stroke-linecap:square"
       id="path3-5"
       d="m 458.25915,-49.909425 -102.11972,-73.656735 -102.19066,73.558271 38.49499,-119.882811 -101.53673,-74.45834 125.91094,-0.43491 39.43751,-119.57606 39.32225,119.61402 125.91045,0.55627 -101.60845,74.36044 z"
       transform="matrix(-0.97964293,-0.20074792,-0.20074792,0.97964293,860.06915,80.877748)" />
  </g>
</svg>
