<?xml version="1.0" encoding="utf-8"?>
<!-- Generator: Adobe Illustrator 19.0.0, SVG Export Plug-In . SVG Version: 6.00 Build 0)  -->
<svg version="1.1" id="Layer_1" xmlns="http://www.w3.org/2000/svg" xmlns:xlink="http://www.w3.org/1999/xlink" x="0px" y="0px"
	 viewBox="0 0 776.7 961.2" style="enable-background:new 0 0 776.7 961.2;" xml:space="preserve">
<style type="text/css">
	.st0{clip-path:url(#SVGID_2_);}
	.st1{clip-path:url(#SVGID_4_);fill:#011EA0;}
	.st2{clip-path:url(#SVGID_6_);fill:#FFFFFF;}
	.st3{clip-path:url(#SVGID_8_);fill:#FFFFFF;}
	.st4{clip-path:url(#SVGID_10_);fill:#FFFFFF;}
	.st5{clip-path:url(#SVGID_10_);}
</style>
<g>
	<defs>
		<rect id="SVGID_1_" x="-187.3" y="-86.7" width="1152" height="1135.7"/>
	</defs>
	<clipPath id="SVGID_2_">
		<use xlink:href="#SVGID_1_"  style="overflow:visible;"/>
	</clipPath>
	<path class="st0" d="M776.8,573c0,214.4-173.8,388.1-388.1,388.1S0.5,787.4,0.5,573c0-214.4,173.8-388.1,388.1-388.1
		S776.8,358.7,776.8,573"/>
</g>
<g>
	<defs>
		<rect id="SVGID_3_" x="-187.3" y="-86.7" width="1152" height="1135.7"/>
	</defs>
	<clipPath id="SVGID_4_">
		<use xlink:href="#SVGID_3_"  style="overflow:visible;"/>
	</clipPath>
	<path class="st1" d="M721.1,573.3c0,183.7-148.9,332.6-332.6,332.6C204.7,905.9,55.8,757,55.8,573.3s148.9-332.6,332.6-332.6
		C572.2,240.6,721.1,389.6,721.1,573.3"/>
</g>
<g>
	<defs>
		<rect id="SVGID_5_" x="-187.3" y="-86.7" width="1152" height="1135.7"/>
	</defs>
	<clipPath id="SVGID_6_">
		<use xlink:href="#SVGID_5_"  style="overflow:visible;"/>
	</clipPath>
	<path class="st2" d="M206.9,445.5c-25.5,36.1-40.4,80.2-40.4,127.7c0,39.6,10.4,76.8,28.5,108.9l-6.7,82.7
		c-47.7-49.8-77-117.3-77-191.7c0-70.4,26.2-134.7,69.5-183.5L206.9,445.5z"/>
	<path class="st2" d="M665.6,573.3c0,74.7-29.6,142.6-77.7,192.4l-6.7-82.3c18.6-32.4,29.2-70,29.2-110.1c0-47.7-15-91.9-40.7-128.1
		l26.1-55.8C639.2,438.3,665.6,502.7,665.6,573.3"/>
</g>
<g>
	<defs>
		<rect id="SVGID_7_" x="-187.3" y="-86.7" width="1152" height="1135.7"/>
	</defs>
	<clipPath id="SVGID_8_">
		<use xlink:href="#SVGID_7_"  style="overflow:visible;"/>
	</clipPath>
	<path class="st3" d="M467.5,307.6c-9.1-2.7-18.4-5-27.9-6.7c-16.6-3.1-33.7-4.7-51.1-4.7c-17.7,0-35.1,1.7-51.9,4.9
		c-9.5,1.8-18.8,4.1-27.9,6.8c-12.9,3.9-25.4,8.7-37.4,14.3l23.4,50c20.6-9.6,43-16.2,66.5-19.1c9-1.1,18.1-1.7,27.4-1.7
		c9.7,0,19.3,0.6,28.7,1.8c22.9,3,44.7,9.4,64.9,18.8l23.4-50C493.2,316.2,480.5,311.4,467.5,307.6"/>
	<path class="st3" d="M478.2,776.4c-19.1,8.4-39.6,14.3-61.1,17c-9.4,1.2-19,1.8-28.7,1.8c-9.3,0-18.4-0.6-27.4-1.7
		c-22.2-2.7-43.4-8.7-63-17.5l-4.7,57.6c0.8,0.3,1.6,0.6,2.5,0.9c17.8,6.3,36.3,10.8,55.5,13.4c9.5,1.3,19.2,2.1,29,2.4
		c2.7,0.1,5.4,0.1,8.1,0.1c2.6,0,5.1,0,7.7-0.1c9.8-0.3,19.5-1,29.1-2.3c19.2-2.5,37.8-7.1,55.6-13.3c0.7-0.2,1.4-0.5,2.1-0.8
		L478.2,776.4z"/>
	<path class="st3" d="M417.1,353.1v440.3c-9.4,1.2-19,1.8-28.7,1.8c-9.3,0-18.4-0.6-27.4-1.7V353c9-1.1,18.1-1.7,27.4-1.7
		C398.1,351.3,407.7,351.9,417.1,353.1"/>
</g>
<g>
	<defs>
		<rect id="SVGID_9_" x="-187.3" y="-86.7" width="1152" height="1135.7"/>
	</defs>
	<clipPath id="SVGID_10_">
		<use xlink:href="#SVGID_9_"  style="overflow:visible;"/>
	</clipPath>
	<path class="st4" d="M249.2,340.9L249.2,340.9l-2.7-5.8c-8.6,5.2-17,10.8-25,16.8c-6.4,4.8-12.6,9.9-18.5,15.3
		c-0.7,0.7-1.5,1.3-2.2,2l15.5,33.2l1,2.1v0l8.5,18.1c0,0,0.1-0.1,0.1-0.1l17.4,36.8l-22.8,259.3l-6.4,70.3
		c16.2,13.1,33.8,24.4,52.7,33.6l3.2-39.9l18.7-226.2l44.9,97.1V523.9L249.2,340.9z"/>
	<path class="st4" d="M525.4,341.5L525.4,341.5l2.7-5.8c8.6,5.2,17,10.8,25,16.8c6.4,4.8,12.6,9.9,18.5,15.3c0.7,0.7,1.5,1.3,2.2,2
		l-15.5,33.2l-1,2.1v0l-8.5,18.1c0,0-0.1-0.1-0.1-0.1l-17.4,36.8L554.1,719l6.4,70.3c-16.2,13.1-33.8,24.4-52.7,33.6l-3.2-39.9
		l-18.7-226.2L440.8,654V524.5L525.4,341.5z"/>
	<polygon class="st5" points="388.1,1.2 406.1,56.7 464.5,56.7 417.3,91 435.3,146.5 388.1,112.2 340.9,146.5 358.9,91 311.7,56.7 
		370,56.7 	"/>
</g>
</svg>
